<svg id="svg" version="1.1" width="210" height="210" viewBox="90 22 210 210" xmlns="http://www.w3.org/2000/svg" xmlns:xlink="http://www.w3.org/1999/xlink" style="display: block;"><g id="svgg"><path id="path0" d="M188.000 91.082 C 181.198 94.162,175.197 101.351,167.674 115.432 C 138.092 170.801,135.665 175.896,135.170 183.675 C 133.394 211.566,163.664 220.975,186.499 199.630 C 195.102 191.588,204.368 192.346,216.617 202.093 C 239.690 220.453,266.871 209.899,264.745 183.406 C 264.107 175.460,261.691 170.395,232.326 115.432 C 219.370 91.183,205.094 83.340,188.000 91.082 M191.187 103.250 C 190.100 105.037,184.953 114.600,179.750 124.500 C 151.111 178.984,152.079 176.695,156.481 179.580 C 159.283 181.415,158.986 181.543,170.947 173.316 C 181.245 166.233,186.742 164.561,199.845 164.528 L 211.190 164.500 213.590 167.500 C 216.923 171.666,216.661 172.003,211.341 170.402 C 198.095 166.416,183.241 169.954,169.333 180.409 C 157.990 188.936,147.045 185.526,149.315 174.173 C 150.505 168.225,182.318 109.743,187.066 104.777 C 192.370 99.228,193.999 98.625,191.187 103.250 M217.431 110.381 C 219.212 113.197,223.743 121.350,227.499 128.500 C 231.256 135.650,237.204 146.900,240.717 153.500 C 257.300 184.656,258.394 189.942,249.845 197.601 C 245.806 201.220,243.442 201.593,245.834 198.234 C 253.465 187.517,251.686 182.577,218.296 121.750 C 209.163 105.112,207.132 104.947,199.245 120.203 C 181.512 154.502,177.053 161.386,174.331 158.664 C 174.060 158.394,178.669 149.021,184.572 137.836 C 190.476 126.651,196.315 115.475,197.548 113.000 C 203.267 101.525,211.170 100.484,217.431 110.381 M217.694 142.500 C 240.411 184.529,241.718 188.178,235.919 193.363 C 231.557 197.262,227.365 196.606,218.694 190.669 C 204.873 181.207,193.181 181.645,179.310 192.144 C 164.560 203.308,152.336 203.886,146.835 193.679 C 145.886 191.918,145.945 191.918,148.632 193.679 C 150.670 195.015,153.331 195.500,158.613 195.500 L 165.815 195.500 175.657 188.834 C 194.185 176.286,205.731 175.741,221.681 186.661 C 227.354 190.544,228.779 191.113,230.943 190.357 C 236.478 188.422,235.182 184.927,215.066 147.531 C 206.620 131.830,206.025 130.353,207.100 127.757 L 208.262 124.952 209.465 127.226 C 210.126 128.477,213.829 135.350,217.694 142.500 M203.597 147.960 L 206.695 153.904 199.912 153.882 L 193.129 153.861 196.315 147.947 C 200.203 140.727,199.828 140.727,203.597 147.960 " stroke="none" fill="#000000" fill-rule="evenodd"></path></g></svg>
